<svg width="40" height="40" viewBox="0 0 40 40" fill="none" xmlns="http://www.w3.org/2000/svg">
<g clip-path="url(#clip0)">
<path d="M7.00634 18.14C7.27967 19.16 6.57301 20.7467 7.29967 21.9933C8.02634 23.24 9.78634 23.46 10.4863 24.1667C10.9286 24.7935 11.3061 25.4636 11.613 26.1667L8.07967 36.48C7.9131 37.0164 8.10058 37.5997 8.5485 37.9387C8.99642 38.2776 9.60872 38.2995 10.0797 37.9933L12.293 36.4267L13.073 39.02C13.2377 39.5764 13.7434 39.9624 14.3235 39.9746C14.9037 39.9868 15.4251 39.6224 15.613 39.0733L19.0663 29.1333C19.6628 29.3868 20.3366 29.3868 20.933 29.1333L24.3597 39.1C24.5476 39.649 25.069 40.0135 25.6492 40.0013C26.2293 39.9891 26.735 39.6031 26.8997 39.0467L27.6797 36.4533L29.893 38C30.364 38.3061 30.9763 38.2843 31.4242 37.9453C31.8721 37.6064 32.0596 37.0231 31.893 36.4867L28.3863 26.1933C28.6944 25.4922 29.0695 24.8224 29.5063 24.1933C30.233 23.4467 31.9997 23.2467 32.6997 22C33.3997 20.7533 32.733 19.1333 32.993 18.1467C33.253 17.16 34.6663 16.1267 34.6663 14.6667C34.6663 13.2067 33.2397 12.12 32.993 11.1867C32.7463 10.2533 33.4263 8.58 32.6997 7.33334C31.973 6.08667 30.213 5.86667 29.513 5.16C28.813 4.45333 28.593 2.66667 27.333 1.96C26.073 1.25333 24.4663 1.96 23.4797 1.67333C22.493 1.38667 21.4663 0 19.9997 0C18.533 0 17.4597 1.42 16.5197 1.67333C15.4797 1.94667 13.9197 1.23333 12.6663 1.96C11.413 2.68667 11.2063 4.44 10.493 5.15334C9.77968 5.86667 7.99967 6.07334 7.33301 7.33334C6.66634 8.59334 7.33301 10.2 7.03967 11.1867C6.74634 12.1733 5.33301 13.1933 5.33301 14.6667C5.33301 16.14 6.75301 17.1933 7.00634 18.14ZM14.3797 38.6667L13.5997 36.06C13.4679 35.6536 13.1494 35.3349 12.743 35.203C12.3367 35.071 11.8917 35.1418 11.5463 35.3933L9.33301 36.94C12.9063 26.5333 12.5997 27.3333 12.6663 27.3333C13.893 28.0467 15.533 27.3333 16.5197 27.62C17.0005 27.8264 17.4495 28.1003 17.853 28.4333L14.3797 38.6667ZM28.453 35.3333C28.0985 35.0833 27.6446 35.0214 27.2361 35.1673C26.8276 35.3132 26.5156 35.6487 26.3997 36.0667L25.6197 38.6667L22.113 28.46C22.5133 28.1241 22.963 27.852 23.4463 27.6533C24.493 27.3733 26.0463 28.0867 27.2997 27.36C27.3663 27.32 27.0663 26.5467 30.633 36.9333L28.453 35.3333ZM7.41301 13.1333C8.36634 11.8 8.49967 11.36 8.34634 9.63334C8.19301 7.90667 8.28634 7.78667 9.83967 7.07334C11.393 6.36 11.6997 6.04667 12.4063 4.5C13.113 2.95333 13.333 2.86 14.973 3.01333C16.613 3.16667 17.1263 3.01333 18.473 2.08C19.8197 1.14667 20.1197 1.08667 21.5263 2.08C22.933 3.07333 23.333 3.16 25.0263 3.01333C26.7197 2.86667 26.8797 2.95333 27.593 4.5C28.3063 6.04667 28.6263 6.36 30.1597 7.07334C31.693 7.78667 31.8063 7.96667 31.653 9.63334C31.4997 11.3 31.653 11.7933 32.5863 13.1333C33.5197 14.4733 33.5797 14.78 32.5863 16.1867C31.593 17.5933 31.4997 17.96 31.653 19.6867C31.8063 21.4133 31.713 21.5333 30.1597 22.2533C28.6063 22.9733 28.3063 23.2733 27.593 24.82C26.8797 26.3667 26.6997 26.46 25.0263 26.3133C23.353 26.1667 22.873 26.3133 21.5263 27.24C20.1797 28.1667 19.8797 28.2333 18.473 27.24C17.7781 26.6116 16.8765 26.2604 15.9397 26.2533C14.9797 26.2533 13.893 26.5267 13.333 26.2067C12.5663 25.76 12.3597 24.1467 11.433 23.2267C10.5063 22.3067 8.88634 22.08 8.45301 21.3333C8.01967 20.5867 8.63301 19.0667 8.29301 17.8067C7.95301 16.5467 6.66634 15.5533 6.66634 14.6667C6.76732 14.0959 7.02595 13.5648 7.41301 13.1333Z" fill="url(#paint0_linear)"/>
<path d="M20 24.6667C25.5228 24.6667 30 20.1896 30 14.6667C30 9.1439 25.5228 4.66675 20 4.66675C14.4772 4.66675 10 9.1439 10 14.6667C10 20.1896 14.4772 24.6667 20 24.6667ZM20 6.00008C24.7865 6.00008 28.6667 9.88028 28.6667 14.6667C28.6667 19.4532 24.7865 23.3334 20 23.3334C15.2135 23.3334 11.3333 19.4532 11.3333 14.6667C11.3333 12.3682 12.2464 10.1638 13.8717 8.53849C15.4971 6.91317 17.7015 6.00008 20 6.00008Z" fill="url(#paint1_linear)"/>
<path d="M15.3659 16.8201C15.721 16.8023 15.9996 16.509 15.9992 16.1534C15.9678 14.9718 16.4319 13.8309 17.2792 13.0067C18.2859 12.0067 19.4725 11.7401 20.9325 11.4934C21.94 11.3202 22.9031 10.9485 23.7659 10.4001C24.6325 13.7334 23.0525 17.8667 19.7659 18.9601C18.9954 19.2137 18.1903 19.3463 17.3792 19.3534C18.3467 17.5497 19.7151 15.9919 21.3792 14.8001C21.5227 14.696 21.6189 14.539 21.6464 14.3639C21.6739 14.1887 21.6305 14.0098 21.5259 13.8667C21.3095 13.572 20.896 13.5066 20.5992 13.7201C18.4386 15.2175 16.7484 17.2984 15.7259 19.7201C15.6573 19.9129 15.681 20.1265 15.7903 20.2996C15.8996 20.4726 16.0823 20.5858 16.2859 20.6067C19.7725 20.9801 22.9059 19.5667 24.4592 16.2067C25.4988 13.9635 25.5996 11.398 24.7392 9.08008C24.6629 8.89024 24.5036 8.74597 24.3072 8.68873C24.1107 8.63149 23.8989 8.66763 23.7325 8.78675C22.8462 9.47991 21.8056 9.94876 20.6992 10.1534C19.0659 10.4267 17.6125 10.7601 16.3259 12.0334C15.2186 13.1238 14.6169 14.6269 14.6659 16.1801C14.6728 16.3581 14.7507 16.526 14.8822 16.6463C15.0137 16.7665 15.1879 16.8291 15.3659 16.8201Z" fill="url(#paint2_linear)"/>
</g>
<defs>
<linearGradient id="paint0_linear" x1="15.0848" y1="36.4208" x2="22.3646" y2="3.8479" gradientUnits="userSpaceOnUse">
<stop stop-color="#342525"/>
<stop offset="1" stop-color="#593B3B"/>
</linearGradient>
<linearGradient id="paint1_linear" x1="16.6489" y1="22.8764" x2="19.378" y2="6.22442" gradientUnits="userSpaceOnUse">
<stop stop-color="#342525"/>
<stop offset="1" stop-color="#593B3B"/>
</linearGradient>
<linearGradient id="paint2_linear" x1="18.2056" y1="19.5906" x2="20.0376" y2="9.66673" gradientUnits="userSpaceOnUse">
<stop stop-color="#342525"/>
<stop offset="1" stop-color="#593B3B"/>
</linearGradient>
<clipPath id="clip0">
<rect width="40" height="40" fill="white"/>
</clipPath>
</defs>
</svg>
