<svg width="57" height="57" viewBox="0 0 57 57" fill="none" xmlns="http://www.w3.org/2000/svg">
<path d="M50.0111 18.6405H45.167C44.706 18.6405 44.332 19.0145 44.332 19.4755C44.332 19.9364 44.706 20.3104 45.167 20.3104H50.0111C50.472 20.3104 50.846 19.9364 50.846 19.4755C50.846 19.0145 50.472 18.6405 50.0111 18.6405Z" fill="url(#paint0_linear)"/>
<path d="M45.167 13.5433H47.3662C47.8276 13.5433 48.2011 13.1693 48.2011 12.7084C48.2011 12.247 47.8276 11.8734 47.3662 11.8734H45.167C44.706 11.8734 44.332 12.247 44.332 12.7084C44.332 13.1693 44.706 13.5433 45.167 13.5433Z" fill="url(#paint1_linear)"/>
<path d="M45.167 6.77576H48.1459C48.6069 6.77576 48.9809 6.4022 48.9809 5.9408C48.9809 5.47983 48.6069 5.10583 48.1459 5.10583H45.167C44.706 5.10583 44.332 5.47983 44.332 5.9408C44.332 6.4022 44.706 6.77576 45.167 6.77576Z" fill="url(#paint2_linear)"/>
<path d="M48.1459 32.1752H45.167C44.706 32.1752 44.332 32.5487 44.332 33.0101C44.332 33.4711 44.706 33.8451 45.167 33.8451H48.1459C48.6069 33.8451 48.9809 33.4711 48.9809 33.0101C48.9809 32.5487 48.6069 32.1752 48.1459 32.1752Z" fill="url(#paint3_linear)"/>
<path d="M45.167 27.0775H47.3662C47.8276 27.0775 48.2011 26.704 48.2011 26.2426C48.2011 25.7816 47.8276 25.4076 47.3662 25.4076H45.167C44.706 25.4076 44.332 25.7816 44.332 26.2426C44.332 26.704 44.706 27.0775 45.167 27.0775Z" fill="url(#paint4_linear)"/>
<path d="M20.2739 18.1251C21.6551 18.8627 21.7381 19.0297 22.1056 19.0297C22.9649 19.0297 23.2611 17.8842 22.5144 17.4659L21.0893 16.6683L22.1374 16.2391C22.564 16.0643 22.7684 15.5763 22.5935 15.1497C22.4187 14.7231 21.9312 14.5191 21.5046 14.6935L19.228 15.6259L16.2413 13.9534L19.228 12.2808C21.569 13.2176 21.5333 13.2758 21.8208 13.2758C22.7327 13.2758 22.9815 12.0138 22.1374 11.6681L21.0898 11.2389L22.5144 10.4409C22.9167 10.2161 23.0606 9.70682 22.8353 9.30456C22.6101 8.9023 22.1013 8.75879 21.6986 8.98405L20.2739 9.78162L20.4557 8.66399C20.5296 8.20911 20.2204 7.77988 19.7651 7.70596C19.3107 7.63203 18.881 7.94079 18.8071 8.3961L18.4127 10.824L15.3672 12.5292V9.03885L17.2929 7.50852C17.6538 7.2215 17.7138 6.69661 17.4272 6.33523C17.1402 5.97428 16.6149 5.91427 16.2539 6.20129L15.3672 6.90578V5.27283C15.3672 4.81186 14.9937 4.43787 14.5323 4.43787C14.0713 4.43787 13.6973 4.81186 13.6973 5.27283V6.90578L12.811 6.20129C12.4501 5.91427 11.9247 5.97428 11.6377 6.33566C11.3507 6.69661 11.4107 7.2215 11.7721 7.50852L13.6973 9.03928V12.5292L10.6523 10.824L10.2574 8.3961C10.1835 7.94079 9.75472 7.63203 9.29941 7.70596C8.84453 7.77988 8.53533 8.20911 8.60926 8.66399L8.79104 9.78162L7.36595 8.98405C6.96369 8.75879 6.45489 8.9023 6.22962 9.30456C6.00435 9.70682 6.14786 10.2161 6.55012 10.4409L7.97521 11.2389L6.92716 11.6681C6.50055 11.8429 6.29659 12.3304 6.47098 12.7575C6.64623 13.1845 7.13416 13.388 7.56034 13.2137L9.83648 12.2813L12.8232 13.9538L9.83648 15.6259L7.56034 14.6935C7.13329 14.5191 6.6458 14.7231 6.47098 15.1502C6.29616 15.5768 6.50055 16.0643 6.92716 16.2391L7.97521 16.6683L6.55012 17.4663C5.80344 17.8842 6.10003 19.0297 6.95891 19.0297C7.32638 19.0297 7.41031 18.8623 8.79104 18.1251L8.60926 19.2432C8.52663 19.7511 8.91889 20.2121 9.43465 20.2121C9.83648 20.2121 10.1909 19.9207 10.2574 19.5111L10.6523 17.0832L13.6973 15.378V18.8679L11.7721 20.3987C11.4107 20.6852 11.3507 21.2106 11.6377 21.5715C11.9247 21.9329 12.4501 21.9929 12.811 21.7059L13.6973 21.0014V22.6344C13.6973 23.0953 14.0713 23.4693 14.5323 23.4693C14.9937 23.4693 15.3672 23.0953 15.3672 22.6344V21.0014C16.1383 21.5598 16.3044 21.8872 16.7727 21.8872C17.5599 21.8868 17.9117 20.8901 17.2929 20.3987L15.3672 18.8679V15.378L18.4127 17.0832L18.8071 19.5111C18.8736 19.9207 19.228 20.2121 19.6303 20.2121C20.1469 20.2121 20.5379 19.7498 20.4557 19.2432L20.2739 18.1251Z" fill="url(#paint5_linear)"/>
<path d="M41.5416 34.49V7.55248C41.5416 3.38811 38.1539 0 33.9896 0C29.8252 0 26.4371 3.38811 26.4371 7.55248V34.49C23.3173 36.8531 21.4678 40.5539 21.4678 44.4782C21.4678 51.3827 27.0851 57 33.9896 57C40.8941 57 46.5114 51.3827 46.5114 44.4782C46.5114 40.5539 44.6619 36.8531 41.5416 34.49ZM33.9896 55.3301C28.0057 55.3301 23.1377 50.4621 23.1377 44.4782C23.1377 40.9505 24.8628 37.6302 27.7526 35.5972C27.9748 35.4406 28.107 35.1858 28.107 34.914V7.55248C28.107 4.30875 30.7458 1.66992 33.9896 1.66992C37.2329 1.66992 39.8717 4.30875 39.8717 7.55248V34.914C39.8717 35.1858 40.0039 35.4406 40.2261 35.5972C43.1163 37.6306 44.8415 40.9505 44.8415 44.4782C44.8415 50.4621 39.973 55.3301 33.9896 55.3301Z" fill="url(#paint6_linear)"/>
<path d="M37.6449 36.1447V7.55247C37.6449 5.53682 36.0054 3.89734 33.9902 3.89734C31.975 3.89734 30.3351 5.53682 30.3351 7.55247V10.1378C30.3351 10.5988 30.7091 10.9728 31.1701 10.9728C31.6315 10.9728 32.005 10.5988 32.005 10.1378V7.55247C32.005 6.45789 32.8957 5.56726 33.9902 5.56726C35.0848 5.56726 35.975 6.45789 35.975 7.55247V32.2956H32.005V13.4855C32.005 13.0241 31.6315 12.6505 31.1701 12.6505C30.7091 12.6505 30.3351 13.0241 30.3351 13.4855V36.1447C27.1714 37.5706 25.084 40.763 25.084 44.266C25.084 49.177 29.0792 53.1722 33.9898 53.1722C38.9008 53.1722 42.896 49.177 42.896 44.266C42.8965 40.763 40.8086 37.5706 37.6449 36.1447ZM33.9902 51.5023C29.9998 51.5023 26.7539 48.2564 26.7539 44.266C26.7539 41.2601 28.6456 38.5352 31.4619 37.4862C31.7885 37.3645 32.0055 37.0522 32.0055 36.7039V33.9655H35.975V36.7039C35.975 37.0522 36.192 37.3645 36.5186 37.4862C39.3349 38.5352 41.2266 41.2597 41.2266 44.266C41.2266 48.2564 37.9802 51.5023 33.9902 51.5023Z" fill="url(#paint7_linear)"/>
<defs>
<linearGradient id="paint0_linear" x1="46.4976" y1="20.1609" x2="46.5575" y2="18.7357" gradientUnits="userSpaceOnUse">
<stop stop-color="#342525"/>
<stop offset="1" stop-color="#593B3B"/>
</linearGradient>
<linearGradient id="paint1_linear" x1="45.6183" y1="13.3938" x2="45.7188" y2="11.9732" gradientUnits="userSpaceOnUse">
<stop stop-color="#342525"/>
<stop offset="1" stop-color="#593B3B"/>
</linearGradient>
<linearGradient id="paint2_linear" x1="45.8775" y1="6.62627" x2="45.9613" y2="5.20348" gradientUnits="userSpaceOnUse">
<stop stop-color="#342525"/>
<stop offset="1" stop-color="#593B3B"/>
</linearGradient>
<linearGradient id="paint3_linear" x1="45.8775" y1="33.6956" x2="45.9613" y2="32.2728" gradientUnits="userSpaceOnUse">
<stop stop-color="#342525"/>
<stop offset="1" stop-color="#593B3B"/>
</linearGradient>
<linearGradient id="paint4_linear" x1="45.6183" y1="26.928" x2="45.7188" y2="25.5074" gradientUnits="userSpaceOnUse">
<stop stop-color="#342525"/>
<stop offset="1" stop-color="#593B3B"/>
</linearGradient>
<linearGradient id="paint5_linear" x1="11.7144" y1="21.7657" x2="14.6316" y2="6.03549" gradientUnits="userSpaceOnUse">
<stop stop-color="#342525"/>
<stop offset="1" stop-color="#593B3B"/>
</linearGradient>
<linearGradient id="paint6_linear" x1="29.7934" y1="51.8976" x2="45.7512" y2="9.11718" gradientUnits="userSpaceOnUse">
<stop stop-color="#342525"/>
<stop offset="1" stop-color="#593B3B"/>
</linearGradient>
<linearGradient id="paint7_linear" x1="31.0055" y1="48.7613" x2="46.8489" y2="13.8162" gradientUnits="userSpaceOnUse">
<stop stop-color="#342525"/>
<stop offset="1" stop-color="#593B3B"/>
</linearGradient>
</defs>
</svg>
