<svg width="40" height="40" viewBox="0 0 40 40" fill="none" xmlns="http://www.w3.org/2000/svg">
<g clip-path="url(#clip0)">
<path d="M14.1417 11.1399L13.4652 11.3851C12.4211 11.7637 11.6422 12.6769 11.4323 13.7692L11.2028 14.972C11.0882 15.5678 11.2442 16.1779 11.6308 16.6458C12.0176 17.1142 12.5879 17.3828 13.1953 17.3828H19.0591C19.6618 17.3828 20.2292 17.1177 20.6159 16.6555C21.0023 16.1937 21.1631 15.5891 21.057 14.9967L20.8429 13.8002C20.6446 12.6908 19.8631 11.7626 18.8033 11.378L18.0861 11.1181V10.0611C18.0861 10.0314 18.0832 10.0025 18.0789 9.97396C18.6021 9.44131 18.9018 8.71498 18.9018 7.97186V6.39693C18.9018 4.85959 17.651 3.60889 16.1136 3.60889C14.5761 3.60889 13.3251 4.85959 13.3251 6.39693V8.02092C13.3251 8.78482 13.6401 9.48225 14.1466 9.98873C14.1436 10.0125 14.1417 10.0365 14.1417 10.061V11.1399ZM19.6892 14.0065L19.9033 15.2031C19.9481 15.4532 19.8802 15.7084 19.717 15.9034C19.5536 16.0987 19.3137 16.2108 19.059 16.2108H13.1951C12.9385 16.2108 12.6975 16.0974 12.5341 15.8995C12.371 15.702 12.3051 15.4446 12.3536 15.1925L12.5831 13.9897C12.7154 13.3012 13.2064 12.7254 13.8643 12.4869L14.3075 12.3263C14.3186 12.3377 14.3297 12.3492 14.3418 12.3597C14.8467 12.8012 15.48 13.022 16.1138 13.0219C16.7468 13.0219 17.38 12.8016 17.885 12.361C17.9032 12.3451 17.9199 12.328 17.9358 12.3102L18.4033 12.4797C19.0715 12.722 19.5642 13.307 19.6892 14.0065ZM14.497 6.39693C14.497 5.50584 15.2221 4.78076 16.1133 4.78076C16.8655 4.78076 17.4975 5.29795 17.677 5.99482C17.6017 6.03162 17.5244 6.06639 17.4453 6.09803C16.7248 6.38646 16.1429 6.34818 15.9765 6.23162C15.7115 6.04584 15.3462 6.1099 15.1604 6.3749C14.9746 6.6399 15.0387 7.00521 15.3036 7.19107C15.5898 7.39178 15.9782 7.49209 16.4215 7.49209C16.8243 7.49209 17.2723 7.40842 17.7297 7.24287V7.9717C17.7297 8.41959 17.5445 8.85818 17.2215 9.17498C17.0719 9.3217 16.9006 9.43537 16.7166 9.51381C16.7037 9.51873 16.6911 9.52404 16.6786 9.52982C16.4897 9.60459 16.2878 9.64217 16.0815 9.63678C15.2077 9.61998 14.497 8.89506 14.497 8.02084V6.39693ZM16.059 10.8086C16.0768 10.8089 16.0946 10.809 16.1125 10.809C16.3874 10.809 16.6568 10.7677 16.9141 10.6884V11.6258C16.4257 11.9269 15.8015 11.9268 15.3137 11.6254V10.6901C15.5507 10.7619 15.8005 10.8036 16.059 10.8086Z" fill="url(#paint0_linear)"/>
<path d="M6.89551 27.4146H25.1432C25.4668 27.4146 25.7291 27.1523 25.7291 26.8286C25.7291 26.5049 25.4668 26.2427 25.1432 26.2427H6.89551C6.57184 26.2427 6.30957 26.5049 6.30957 26.8286C6.30957 27.1523 6.57184 27.4146 6.89551 27.4146Z" fill="url(#paint1_linear)"/>
<path d="M6.89551 30.574H25.1432C25.4668 30.574 25.7291 30.3117 25.7291 29.988C25.7291 29.6644 25.4668 29.4021 25.1432 29.4021H6.89551C6.57184 29.4021 6.30957 29.6644 6.30957 29.988C6.30957 30.3117 6.57184 30.574 6.89551 30.574Z" fill="url(#paint2_linear)"/>
<path d="M6.89551 33.7332H25.1432C25.4668 33.7332 25.7291 33.4709 25.7291 33.1472C25.7291 32.8235 25.4668 32.5613 25.1432 32.5613H6.89551C6.57184 32.5613 6.30957 32.8235 6.30957 33.1472C6.30957 33.4709 6.57184 33.7332 6.89551 33.7332Z" fill="url(#paint3_linear)"/>
<path d="M6.89551 36.8926H25.1432C25.4668 36.8926 25.7291 36.6303 25.7291 36.3066C25.7291 35.983 25.4668 35.7207 25.1432 35.7207H6.89551C6.57184 35.7207 6.30957 35.983 6.30957 36.3066C6.30957 36.6303 6.57184 36.8926 6.89551 36.8926Z" fill="url(#paint4_linear)"/>
<path d="M6.30957 20.5098C6.30957 20.8334 6.57184 21.0957 6.89551 21.0957H25.1432C25.4668 21.0957 25.7291 20.8334 25.7291 20.5098C25.7291 20.1861 25.4668 19.9238 25.1432 19.9238H6.89551C6.57184 19.9238 6.30957 20.1862 6.30957 20.5098Z" fill="url(#paint5_linear)"/>
<path d="M6.89551 24.2549H25.1432C25.4668 24.2549 25.7291 23.9926 25.7291 23.6689C25.7291 23.3453 25.4668 23.083 25.1432 23.083H6.89551C6.57184 23.083 6.30957 23.3453 6.30957 23.6689C6.30957 23.9926 6.57184 24.2549 6.89551 24.2549Z" fill="url(#paint6_linear)"/>
<path d="M4.73168 27.4167C5.05652 27.4167 5.31988 27.1535 5.31988 26.8286C5.31988 26.5038 5.05652 26.2405 4.73168 26.2405C4.40684 26.2405 4.14355 26.5038 4.14355 26.8286C4.14355 27.1535 4.40691 27.4167 4.73168 27.4167Z" fill="url(#paint7_linear)"/>
<path d="M4.73168 21.0976C5.05652 21.0976 5.31988 20.8344 5.31988 20.5095C5.31988 20.1847 5.05652 19.9214 4.73168 19.9214C4.40684 19.9214 4.14355 20.1847 4.14355 20.5095C4.14355 20.8344 4.40691 21.0976 4.73168 21.0976Z" fill="url(#paint8_linear)"/>
<path d="M4.73168 24.2573C5.05652 24.2573 5.31988 23.994 5.31988 23.6692C5.31988 23.3443 5.05652 23.0811 4.73168 23.0811C4.40684 23.0811 4.14355 23.3443 4.14355 23.6692C4.14355 23.994 4.40691 24.2573 4.73168 24.2573Z" fill="url(#paint9_linear)"/>
<path d="M4.73168 30.5759C5.05652 30.5759 5.31988 30.3126 5.31988 29.9878C5.31988 29.6629 5.05652 29.3997 4.73168 29.3997C4.40684 29.3997 4.14355 29.6629 4.14355 29.9878C4.14355 30.3126 4.40691 30.5759 4.73168 30.5759Z" fill="url(#paint10_linear)"/>
<path d="M4.73168 33.7353C5.05652 33.7353 5.31988 33.4721 5.31988 33.1472C5.31988 32.8224 5.05652 32.5591 4.73168 32.5591C4.40684 32.5591 4.14355 32.8224 4.14355 33.1472C4.14355 33.472 4.40691 33.7353 4.73168 33.7353Z" fill="url(#paint11_linear)"/>
<path d="M4.73168 36.8948C5.05652 36.8948 5.31988 36.6315 5.31988 36.3066C5.31988 35.9819 5.05652 35.7185 4.73168 35.7185C4.40684 35.7185 4.14355 35.9818 4.14355 36.3066C4.14355 36.6314 4.40691 36.8948 4.73168 36.8948Z" fill="url(#paint12_linear)"/>
<path d="M37.9396 9.2282C37.7032 8.92898 37.4797 8.64625 37.3717 8.38578C37.2551 8.10461 37.2092 7.73312 37.1606 7.33969C37.0754 6.65047 36.9788 5.8693 36.4336 5.32422C35.8885 4.77914 35.1072 4.68258 34.418 4.59734C34.0245 4.54875 33.6529 4.50281 33.3717 4.38625C33.1111 4.2782 32.8285 4.05492 32.5292 3.81844C32.1174 3.49305 31.6645 3.13578 31.129 2.97367V2.79641C31.1291 1.25453 29.8745 0 28.3324 0H3.9227C2.38059 0 1.12598 1.25453 1.12598 2.79648V5.05813C1.12598 5.3818 1.38824 5.64406 1.71191 5.64406C2.03559 5.64406 2.29785 5.3818 2.29785 5.05813V2.79648C2.29785 1.90062 3.02676 1.17188 3.9227 1.17188H28.3324C29.2283 1.17188 29.9572 1.90062 29.9572 2.79648V2.97383C29.4219 3.13602 28.9692 3.49312 28.5574 3.81852C28.2581 4.05492 27.9754 4.27828 27.715 4.38633C27.4338 4.50281 27.0621 4.54875 26.6686 4.59742C25.9794 4.68258 25.1982 4.77914 24.653 5.32422C24.1078 5.86938 24.0112 6.65055 23.926 7.33977C23.8774 7.73312 23.8314 8.10469 23.7149 8.38586C23.6068 8.64633 23.3835 8.92906 23.147 9.22828C22.7092 9.78227 22.2131 10.4102 22.2131 11.214C22.2131 12.0178 22.7093 12.6457 23.147 13.1997C23.3834 13.4989 23.6068 13.7816 23.7149 14.0421C23.8314 14.3233 23.8774 14.6948 23.926 15.0883C24.0112 15.7774 24.1078 16.5586 24.6529 17.1037C25.1981 17.6488 25.9793 17.7453 26.6686 17.8305C26.874 17.8559 27.0732 17.8809 27.257 17.9152V26.772C27.257 27.1191 27.4507 27.4291 27.7627 27.581C28.0746 27.7331 28.4381 27.6945 28.7116 27.4804L29.9571 26.5052V37.2036C29.9571 38.0995 29.2282 38.8282 28.3323 38.8282H3.9227C3.02676 38.8282 2.29785 38.0995 2.29785 37.2036V7.63836C2.29785 7.31469 2.03559 7.05242 1.71191 7.05242C1.38824 7.05242 1.12598 7.31469 1.12598 7.63836V37.2035C1.12598 38.7455 2.38059 40 3.9227 40H28.3324C29.8745 40 31.1291 38.7455 31.1291 37.2035V26.5051L32.3746 27.4802C32.5372 27.6076 32.7318 27.6729 32.9285 27.6729C33.0625 27.6729 33.1975 27.6425 33.3241 27.5809C33.6361 27.429 33.83 27.119 33.83 26.772V20.2331C33.83 19.9095 33.5678 19.6472 33.2441 19.6472C32.9204 19.6472 32.6582 19.9095 32.6582 20.2331V26.214L31.1006 24.9945C30.9432 24.8699 30.7452 24.8013 30.5431 24.8013C30.341 24.8013 30.143 24.8699 29.9881 24.9925L28.4288 26.2134V18.5083C28.4713 18.5416 28.514 18.5752 28.5573 18.6094C29.1114 19.0472 29.7393 19.5432 30.5432 19.5432C31.3471 19.5432 31.975 19.0471 32.5291 18.6095C32.8284 18.373 33.1111 18.1496 33.3716 18.0416C33.6528 17.9251 34.0244 17.8791 34.4179 17.8305C35.1072 17.7453 35.8883 17.6488 36.4336 17.1037C36.9787 16.5585 37.0753 15.7773 37.1605 15.0882C37.2092 14.6948 37.2551 14.3232 37.3717 14.042C37.4797 13.7816 37.7031 13.4988 37.9396 13.1996C38.3774 12.6456 38.8735 12.0177 38.8735 11.2139C38.8735 10.4101 38.3773 9.78219 37.9396 9.2282ZM37.0201 12.473C36.7445 12.8219 36.4595 13.1825 36.2893 13.5931C36.1117 14.0213 36.0536 14.4905 35.9975 14.9444C35.9295 15.4948 35.8653 16.0148 35.6051 16.2749C35.3449 16.5351 34.8249 16.5993 34.2743 16.6673C33.8204 16.7234 33.3512 16.7814 32.9229 16.959C32.5123 17.1292 32.1517 17.4141 31.8029 17.6898C31.3592 18.0402 30.9402 18.3713 30.5434 18.3713C30.1466 18.3713 29.7276 18.0402 29.2839 17.6898C28.9351 17.4142 28.5745 17.1292 28.1639 16.959C28.1356 16.9473 28.0375 16.9099 28.0163 16.9034C27.629 16.7687 27.2147 16.717 26.8124 16.6673C26.2618 16.5993 25.7418 16.535 25.4816 16.2748C25.2215 16.0148 25.1572 15.4948 25.0892 14.9445C25.0331 14.4905 24.9751 14.0214 24.7975 13.5931C24.6272 13.1825 24.3423 12.8219 24.0667 12.473C23.7163 12.0295 23.3852 11.6105 23.3852 11.2139C23.3852 10.8173 23.7162 10.3984 24.0667 9.95477C24.3423 9.60594 24.6273 9.24531 24.7975 8.83469C24.9751 8.40656 25.0332 7.93727 25.0892 7.48344C25.1572 6.93297 25.2215 6.41305 25.4817 6.15289C25.7419 5.89273 26.2619 5.82852 26.8125 5.76047C27.2664 5.70438 27.7356 5.64641 28.1639 5.46883C28.5745 5.29859 28.9351 5.01367 29.2839 4.73805C29.7267 4.38828 30.145 4.05797 30.5411 4.05672C30.5418 4.05672 30.5425 4.0568 30.5432 4.0568C30.544 4.0568 30.5448 4.05672 30.5456 4.05672C30.9418 4.05789 31.36 4.38828 31.8029 4.73805C32.1517 5.01359 32.5123 5.29859 32.9229 5.46883C33.3511 5.64641 33.8205 5.70445 34.2744 5.76047C34.825 5.82852 35.345 5.89281 35.6051 6.15297C35.8653 6.41313 35.9296 6.93297 35.9976 7.48344C36.0537 7.93727 36.1117 8.40648 36.2893 8.83469C36.4596 9.24531 36.7445 9.60594 37.0201 9.95477C37.3705 10.3984 37.7016 10.8173 37.7016 11.2139C37.7016 11.6105 37.3706 12.0295 37.0201 12.473Z" fill="url(#paint13_linear)"/>
<path d="M34.3046 9.35184L32.3107 8.7877L31.1578 7.06583C31.0201 6.86021 30.7902 6.73755 30.5428 6.73755C30.2954 6.73755 30.0654 6.86028 29.9278 7.06583L28.7749 8.7877L26.7808 9.35192C26.5427 9.41934 26.3549 9.6002 26.2785 9.83552C26.2021 10.0708 26.2479 10.3275 26.4008 10.5217L27.6823 12.15L27.6028 14.2201C27.5932 14.4675 27.7069 14.702 27.9072 14.8475C28.0357 14.9409 28.1879 14.9892 28.3419 14.9892C28.428 14.9892 28.5146 14.9741 28.5977 14.9435L30.5426 14.228L32.4874 14.9434C32.7197 15.029 32.9777 14.9931 33.1779 14.8477C33.3782 14.7023 33.4921 14.4679 33.4826 14.2204L33.403 12.15L34.6846 10.5216C34.8376 10.3272 34.8833 10.0707 34.8068 9.83536C34.7306 9.60005 34.5428 9.41927 34.3046 9.35184ZM32.3837 11.5505C32.2754 11.6883 32.2194 11.8607 32.2261 12.0364L32.2869 13.6211L30.7983 13.0735C30.6334 13.0128 30.4518 13.0129 30.2872 13.0734L28.7985 13.6211L28.8594 12.0358C28.8659 11.8608 28.8098 11.6884 28.7013 11.5501L27.7205 10.3039L29.247 9.87208C29.4158 9.82419 29.5626 9.71747 29.6602 9.57169L30.5426 8.25372L31.425 9.57153C31.5226 9.71739 31.6694 9.82411 31.8386 9.87216L33.3647 10.3039L32.3837 11.5505Z" fill="url(#paint14_linear)"/>
</g>
<defs>
<linearGradient id="paint0_linear" x1="14.4649" y1="16.1498" x2="17.012" y2="4.95308" gradientUnits="userSpaceOnUse">
<stop stop-color="#342525"/>
<stop offset="1" stop-color="#593B3B"/>
</linearGradient>
<linearGradient id="paint1_linear" x1="12.7655" y1="27.3096" x2="12.7754" y2="26.3078" gradientUnits="userSpaceOnUse">
<stop stop-color="#342525"/>
<stop offset="1" stop-color="#593B3B"/>
</linearGradient>
<linearGradient id="paint2_linear" x1="12.7655" y1="30.4691" x2="12.7754" y2="29.4673" gradientUnits="userSpaceOnUse">
<stop stop-color="#342525"/>
<stop offset="1" stop-color="#593B3B"/>
</linearGradient>
<linearGradient id="paint3_linear" x1="12.7655" y1="33.6283" x2="12.7754" y2="32.6264" gradientUnits="userSpaceOnUse">
<stop stop-color="#342525"/>
<stop offset="1" stop-color="#593B3B"/>
</linearGradient>
<linearGradient id="paint4_linear" x1="12.7655" y1="36.7877" x2="12.7754" y2="35.7859" gradientUnits="userSpaceOnUse">
<stop stop-color="#342525"/>
<stop offset="1" stop-color="#593B3B"/>
</linearGradient>
<linearGradient id="paint5_linear" x1="12.7655" y1="20.9908" x2="12.7754" y2="19.989" gradientUnits="userSpaceOnUse">
<stop stop-color="#342525"/>
<stop offset="1" stop-color="#593B3B"/>
</linearGradient>
<linearGradient id="paint6_linear" x1="12.7655" y1="24.15" x2="12.7754" y2="23.1482" gradientUnits="userSpaceOnUse">
<stop stop-color="#342525"/>
<stop offset="1" stop-color="#593B3B"/>
</linearGradient>
<linearGradient id="paint7_linear" x1="4.53462" y1="27.3114" x2="4.69512" y2="26.3321" gradientUnits="userSpaceOnUse">
<stop stop-color="#342525"/>
<stop offset="1" stop-color="#593B3B"/>
</linearGradient>
<linearGradient id="paint8_linear" x1="4.53462" y1="20.9923" x2="4.69512" y2="20.013" gradientUnits="userSpaceOnUse">
<stop stop-color="#342525"/>
<stop offset="1" stop-color="#593B3B"/>
</linearGradient>
<linearGradient id="paint9_linear" x1="4.53462" y1="24.152" x2="4.69511" y2="23.1727" gradientUnits="userSpaceOnUse">
<stop stop-color="#342525"/>
<stop offset="1" stop-color="#593B3B"/>
</linearGradient>
<linearGradient id="paint10_linear" x1="4.53462" y1="30.4706" x2="4.69512" y2="29.4913" gradientUnits="userSpaceOnUse">
<stop stop-color="#342525"/>
<stop offset="1" stop-color="#593B3B"/>
</linearGradient>
<linearGradient id="paint11_linear" x1="4.53462" y1="33.63" x2="4.69512" y2="32.6507" gradientUnits="userSpaceOnUse">
<stop stop-color="#342525"/>
<stop offset="1" stop-color="#593B3B"/>
</linearGradient>
<linearGradient id="paint12_linear" x1="4.53462" y1="36.7895" x2="4.69512" y2="35.8101" gradientUnits="userSpaceOnUse">
<stop stop-color="#342525"/>
<stop offset="1" stop-color="#593B3B"/>
</linearGradient>
<linearGradient id="paint13_linear" x1="13.675" y1="36.4194" x2="19.4403" y2="3.22207" gradientUnits="userSpaceOnUse">
<stop stop-color="#342525"/>
<stop offset="1" stop-color="#593B3B"/>
</linearGradient>
<linearGradient id="paint14_linear" x1="29.1016" y1="14.2505" x2="30.184" y2="7.36589" gradientUnits="userSpaceOnUse">
<stop stop-color="#342525"/>
<stop offset="1" stop-color="#593B3B"/>
</linearGradient>
<clipPath id="clip0">
<rect width="40" height="40" fill="white"/>
</clipPath>
</defs>
</svg>
