<svg width="57" height="57" viewBox="0 0 57 57" fill="none" xmlns="http://www.w3.org/2000/svg">
<g clip-path="url(#clip0)">
<path d="M28.5 4.78444C28.9612 4.78444 29.335 4.4106 29.335 3.94948V0.834961C29.335 0.37384 28.9612 0 28.5 0C28.0388 0 27.665 0.37384 27.665 0.834961V3.94948C27.665 4.4106 28.0388 4.78444 28.5 4.78444Z" fill="url(#paint0_linear)"/>
<path d="M44.9124 7.28796L42.7094 9.49103C42.3833 9.81711 42.3833 10.3458 42.7094 10.6718C42.8725 10.8348 43.0863 10.9164 43.2999 10.9164C43.5135 10.9164 43.7273 10.8349 43.8904 10.6718L46.0933 8.4687C46.4194 8.14262 46.4194 7.61392 46.0933 7.28796C45.767 6.96188 45.2385 6.96188 44.9124 7.28796Z" fill="url(#paint1_linear)"/>
<path d="M13.1087 39.0919L10.9057 41.2949C10.5796 41.621 10.5796 42.1497 10.9057 42.4757C11.0688 42.6387 11.2825 42.7203 11.4962 42.7203C11.7098 42.7203 11.9236 42.6388 12.0867 42.4757L14.2896 40.2726C14.6157 39.9465 14.6157 39.4178 14.2896 39.0919C13.9634 38.7658 13.4348 38.7658 13.1087 39.0919Z" fill="url(#paint2_linear)"/>
<path d="M52.5471 24.0469H49.4326C48.9714 24.0469 48.5977 24.4207 48.5977 24.8818C48.5977 25.343 48.9714 25.7168 49.4326 25.7168H52.5471C53.0084 25.7168 53.3821 25.343 53.3821 24.8818C53.3821 24.4207 53.0084 24.0469 52.5471 24.0469Z" fill="url(#paint3_linear)"/>
<path d="M7.56764 24.0469H4.45312C3.99189 24.0469 3.61816 24.4207 3.61816 24.8818C3.61816 25.343 3.99189 25.7168 4.45312 25.7168H7.56764C8.02887 25.7168 8.4026 25.343 8.4026 24.8818C8.4026 24.4207 8.02876 24.0469 7.56764 24.0469Z" fill="url(#paint4_linear)"/>
<path d="M43.8903 39.0919C43.5641 38.7658 43.0355 38.7658 42.7094 39.0919C42.3833 39.4179 42.3833 39.9465 42.7094 40.2726L44.9124 42.4757C45.0755 42.6388 45.2891 42.7203 45.5029 42.7203C45.7165 42.7203 45.9303 42.6388 46.0933 42.4757C46.4194 42.1496 46.4194 41.6209 46.0933 41.2949L43.8903 39.0919Z" fill="url(#paint5_linear)"/>
<path d="M13.1095 10.6718C13.2726 10.8349 13.4863 10.9164 13.7 10.9164C13.9136 10.9164 14.1274 10.8349 14.2905 10.6718C14.6166 10.3457 14.6166 9.81711 14.2905 9.49103L12.0875 7.28796C11.7614 6.96188 11.2329 6.96188 10.9067 7.28796C10.5806 7.61404 10.5806 8.14273 10.9067 8.4687L13.1095 10.6718Z" fill="url(#paint6_linear)"/>
<path d="M46.0342 24.8818C46.0342 19.5697 43.6649 14.6025 39.5337 11.2538C39.1755 10.9635 38.6498 11.0185 38.3593 11.3767C38.0689 11.735 38.124 12.2607 38.4822 12.5511C42.2203 15.5811 44.3643 20.0756 44.3643 24.8818C44.3643 33.3493 37.696 40.2886 29.335 40.7244V38.8164C31.4244 38.6289 33.2812 37.7348 34.6285 36.252C36.2637 34.4522 37.1279 31.8425 37.1279 28.7048C37.1279 24.8763 34.9283 21.1745 33.6171 19.3087C32.4958 17.7131 29.9831 14.6953 28.5 14.6953C27.0169 14.6953 24.5042 17.7131 23.3829 19.3087C22.0717 21.1745 19.8721 24.8763 19.8721 28.7048C19.8721 30.1482 20.0532 31.4848 20.4105 32.6773C20.5427 33.119 21.0081 33.3696 21.4499 33.2375C21.8917 33.1051 22.1425 32.6397 22.0101 32.198C21.6995 31.1612 21.542 29.9859 21.542 28.7048C21.542 25.4297 23.459 22.1468 24.6015 20.4816C26.3907 17.874 28.0257 16.5575 28.5 16.3774C28.9743 16.5575 30.6092 17.8738 32.3985 20.4816C33.5412 22.1468 35.458 25.4297 35.458 28.7048C35.458 33.5867 33.1349 36.7424 29.335 37.1408V33.7829L32.723 31.042C33.0816 30.7519 33.1371 30.2261 32.847 29.8677C32.557 29.5092 32.0312 29.4535 31.6727 29.7436L29.335 31.6349V27.7122L31.9171 25.6581C32.278 25.371 32.3378 24.8458 32.0507 24.4849C31.7637 24.1239 31.2383 24.0642 30.8775 24.3514L29.335 25.5783V21.876C29.335 21.4149 28.9612 21.041 28.5 21.041C28.0388 21.041 27.665 21.4149 27.665 21.876V25.5783L26.1225 24.3511C25.7618 24.064 25.2363 24.1238 24.9493 24.4847C24.6622 24.8455 24.722 25.3708 25.0829 25.6579L27.665 27.712V31.6347L25.3273 29.7434C24.9688 29.4533 24.443 29.5091 24.153 29.8674C23.863 30.2259 23.9185 30.7517 24.277 31.0417L27.665 33.7826V37.1398C25.992 36.9614 24.568 36.2379 23.5116 35.0209C23.2091 34.6726 22.6818 34.6354 22.3338 34.9377C21.9855 35.2399 21.9482 35.7673 22.2505 36.1155C23.6099 37.6817 25.5098 38.6236 27.665 38.8164V40.7243C19.304 40.2886 12.6357 33.3493 12.6357 24.8817C12.6357 16.1342 19.7524 9.01758 28.5 9.01758C31.0162 9.01758 33.422 9.58914 35.6505 10.7164C36.0622 10.9246 36.5643 10.7598 36.7725 10.3483C36.9806 9.93681 36.8158 9.4345 36.4043 9.22632C33.9399 7.97978 31.2805 7.34766 28.5 7.34766C18.8316 7.34766 10.9658 15.2134 10.9658 24.8818C10.9658 32.1511 15.4124 38.4013 21.7284 41.0556C20.9543 41.4822 20.4287 42.3064 20.4287 43.251C20.4287 44.3395 21.1267 45.2681 22.0986 45.6128V47.5689C21.1267 47.9136 20.4287 48.8421 20.4287 49.9308C20.4287 51.0195 21.1267 51.9479 22.0986 52.2926V53.9197C22.0986 55.6182 23.4805 57.0001 25.1791 57.0001H31.8209C33.5194 57.0001 34.9014 55.6182 34.9014 53.9197V52.2926C35.8733 51.9479 36.5713 51.0195 36.5713 49.9308C36.5713 48.8421 35.8733 47.9136 34.9014 47.5689V45.6128C35.8733 45.2681 36.5713 44.3397 36.5713 43.251C36.5713 42.3064 36.0457 41.4823 35.2716 41.0556C41.5876 38.4013 46.0342 32.1511 46.0342 24.8818ZM33.2314 45.7559V47.4258H23.7686V45.7559H33.2314ZM34.0664 50.7656H28.5C28.0388 50.7656 27.665 51.1395 27.665 51.6006C27.665 52.0617 28.0388 52.4355 28.5 52.4355H33.2314V53.9195C33.2314 54.6973 32.5987 55.3301 31.8209 55.3301H25.1791C24.4013 55.3301 23.7686 54.6973 23.7686 53.9195V52.4355H24.9461C25.4073 52.4355 25.781 52.0617 25.781 51.6006C25.781 51.1395 25.4073 50.7656 24.9461 50.7656H22.9336C22.4731 50.7656 22.0986 50.3911 22.0986 49.9307C22.0986 49.4702 22.4731 49.0957 22.9336 49.0957H34.0664C34.5269 49.0957 34.9014 49.4702 34.9014 49.9307C34.9014 50.3911 34.5269 50.7656 34.0664 50.7656ZM34.0664 44.0859H22.9336C22.4731 44.0859 22.0986 43.7114 22.0986 43.251C22.0986 42.7905 22.4731 42.416 22.9336 42.416H34.0664C34.5269 42.416 34.9014 42.7905 34.9014 43.251C34.9014 43.7114 34.5269 44.0859 34.0664 44.0859Z" fill="url(#paint7_linear)"/>
</g>
<defs>
<linearGradient id="paint0_linear" x1="28.2202" y1="4.35615" x2="29.7939" y2="1.00459" gradientUnits="userSpaceOnUse">
<stop stop-color="#342525"/>
<stop offset="1" stop-color="#593B3B"/>
</linearGradient>
<linearGradient id="paint1_linear" x1="43.7524" y1="10.5697" x2="44.2809" y2="7.34503" gradientUnits="userSpaceOnUse">
<stop stop-color="#342525"/>
<stop offset="1" stop-color="#593B3B"/>
</linearGradient>
<linearGradient id="paint2_linear" x1="11.9487" y1="42.3736" x2="12.4772" y2="39.1489" gradientUnits="userSpaceOnUse">
<stop stop-color="#342525"/>
<stop offset="1" stop-color="#593B3B"/>
</linearGradient>
<linearGradient id="paint3_linear" x1="50.1882" y1="25.5673" x2="50.2696" y2="24.1442" gradientUnits="userSpaceOnUse">
<stop stop-color="#342525"/>
<stop offset="1" stop-color="#593B3B"/>
</linearGradient>
<linearGradient id="paint4_linear" x1="5.20873" y1="25.5673" x2="5.29014" y2="24.1442" gradientUnits="userSpaceOnUse">
<stop stop-color="#342525"/>
<stop offset="1" stop-color="#593B3B"/>
</linearGradient>
<linearGradient id="paint5_linear" x1="43.7524" y1="42.3736" x2="44.2809" y2="39.1489" gradientUnits="userSpaceOnUse">
<stop stop-color="#342525"/>
<stop offset="1" stop-color="#593B3B"/>
</linearGradient>
<linearGradient id="paint6_linear" x1="11.9497" y1="10.5697" x2="12.4781" y2="7.34504" gradientUnits="userSpaceOnUse">
<stop stop-color="#342525"/>
<stop offset="1" stop-color="#593B3B"/>
</linearGradient>
<linearGradient id="paint7_linear" x1="22.6242" y1="52.5554" x2="31.9715" y2="12.2734" gradientUnits="userSpaceOnUse">
<stop stop-color="#342525"/>
<stop offset="1" stop-color="#593B3B"/>
</linearGradient>
<clipPath id="clip0">
<rect width="57" height="57" fill="white"/>
</clipPath>
</defs>
</svg>
