<svg width="99" height="99" viewBox="0 0 99 99" fill="none" xmlns="http://www.w3.org/2000/svg">
<path d="M43.9787 98.9874C43.9721 98.9882 43.9655 98.989 43.959 98.99C43.9691 98.9888 43.9793 98.9874 43.9787 98.9874Z" fill="black"/>
<path d="M43.9592 98.99C43.949 98.9914 43.9389 98.9926 43.9395 98.9926C43.9462 98.992 43.9528 98.991 43.9592 98.99Z" fill="black"/>
<path d="M45.249 88.424V24.9821C45.249 24.181 44.5999 23.5317 43.7986 23.5317C42.9975 23.5317 42.3482 24.1808 42.3482 24.9821V41.8121C39.0669 24.5925 37.8592 7.91073 37.5515 2.90078H42.3482V19.1807C42.3482 19.9818 42.9973 20.6311 43.7986 20.6311C44.5997 20.6311 45.249 19.982 45.249 19.1807V1.45039C45.249 0.649302 44.5999 0 43.7986 0H14.1877C13.3866 0 12.7373 0.649109 12.7373 1.45039V69.1735C12.7373 69.9746 13.3864 70.6239 14.1877 70.6239C14.989 70.6239 15.6381 69.9748 15.6381 69.1735V22.7675C18.5398 33.1314 22.193 55.4782 17.9023 96.099H15.6381V74.9749C15.6381 74.174 14.989 73.5245 14.1877 73.5245C13.3864 73.5245 12.7373 74.1738 12.7373 74.9749V97.5492C12.7373 98.3503 13.3864 98.9996 14.1877 98.9996H19.204C19.2052 98.9996 19.2063 98.9998 19.2075 98.9998C19.2089 98.9998 19.2102 98.9996 19.2116 98.9996H24.9052C24.906 98.9996 43.9769 98.9874 43.9777 98.9874C44.0088 98.9836 44.0401 98.9791 44.0712 98.9731C44.0925 98.9691 44.1132 98.964 44.1341 98.959C44.1557 98.9538 44.1774 98.9486 44.1989 98.9424C44.2238 98.9352 44.2484 98.9271 44.2729 98.9188C44.2824 98.9155 44.2921 98.9132 44.3015 98.9095C44.3089 98.9068 44.3155 98.9033 44.3228 98.9004C44.3524 98.889 44.3814 98.8764 44.41 98.8631C44.4264 98.8554 44.4429 98.8476 44.4591 98.8395C44.4835 98.8269 44.5075 98.8136 44.5311 98.7997C44.5502 98.7885 44.5691 98.7772 44.5877 98.7653C44.6069 98.7529 44.6252 98.7397 44.6436 98.7266C44.6645 98.7117 44.6852 98.6966 44.7051 98.6806C44.7205 98.6682 44.7352 98.6552 44.7501 98.6423C44.7708 98.6243 44.7913 98.6063 44.8108 98.5872C44.8248 98.5736 44.8379 98.5595 44.8511 98.5454C44.8694 98.5259 44.8878 98.5065 44.905 98.4862C44.9189 98.4698 44.9319 98.4528 44.9452 98.4356C44.9599 98.4166 44.9746 98.3977 44.9882 98.3782C45.0025 98.3577 45.0156 98.3364 45.029 98.3153C45.0398 98.2979 45.0508 98.2807 45.0609 98.2629C45.0746 98.2387 45.087 98.214 45.0993 98.1889C45.1073 98.1724 45.1156 98.1564 45.1229 98.1397C45.1345 98.1136 45.1448 98.0872 45.155 98.0603C45.1614 98.0431 45.1682 98.0258 45.174 98.0084C45.1825 97.9829 45.1898 97.957 45.1968 97.9311C45.2024 97.9106 45.208 97.8901 45.2127 97.8694C45.2179 97.8464 45.2221 97.823 45.2262 97.7996C45.2306 97.7745 45.2347 97.7493 45.2378 97.724C45.2401 97.7041 45.2418 97.684 45.2436 97.6639C45.2459 97.6345 45.2475 97.6051 45.248 97.5755C45.2482 97.5668 45.2494 97.5583 45.2494 97.5494C45.249 97.545 45.249 88.4284 45.249 88.424ZM23.6509 96.0988H20.8186C22.6913 78.2109 24.092 53.1763 20.6855 32.3636C18.8469 21.129 16.3591 15.7198 15.6377 14.3225V2.90078H17.0655C18.7549 5.14356 21.9571 11.2899 24.2068 21.7682C25.9989 30.1148 26.9622 39.9147 27.0699 50.8956C27.201 64.2952 26.0505 79.4979 23.6509 96.0988ZM34.2675 96.0988C33.1188 90.5803 32.1431 82.2419 33.5821 78.8521C34.3126 79.7514 35.856 82.1562 38.6083 88.5203C39.8661 91.4286 40.9949 94.283 41.696 96.0988H34.2675ZM42.3482 89.9171C41.9335 88.9159 41.492 87.8723 41.0357 86.8284C36.6283 76.7429 34.9124 75.6984 33.6503 75.511C32.8933 75.3983 32.1831 75.6988 31.7013 76.3342C28.6069 80.415 30.4142 91.5864 31.3101 96.0988H26.5828C28.9847 79.3604 30.1231 64.0272 29.967 50.4998C29.8377 39.283 28.8225 29.2667 26.9502 20.7293C24.8834 11.3061 22.2228 5.74472 20.5195 2.90059H28.2861C28.8115 7.2129 30.6242 21.8527 32.9505 37.9933C36.6317 63.5363 39.793 80.5804 42.3482 88.6659V89.9171ZM42.3482 76.5857C37.4659 53.138 32.2734 11.6016 31.2086 2.90078H34.6455C35.0127 8.95778 36.7949 33.7838 42.348 55.1489V76.5857H42.3482Z" fill="black"/>
<path d="M43.799 99C43.8458 99 43.8926 98.9971 43.9395 98.9924L43.7939 98.9996C43.7957 98.9996 43.7972 99 43.799 99Z" fill="black"/>
<path d="M84.8123 0H80.3314C80.3279 0 80.3242 0 80.3205 0H64.3796C64.3776 0 64.3757 0 64.3736 0H55.2014C54.4003 0 53.751 0.649109 53.751 1.45039V18.7C53.751 18.7048 53.751 18.7097 53.751 18.7147V38.3096C53.751 38.3125 53.751 38.3152 53.751 38.3181V97.5494C53.751 98.3505 54.4001 98.9998 55.2014 98.9998H84.8123C85.6134 98.9998 86.2627 98.3507 86.2627 97.5494V76.9386C86.2627 76.1375 85.6136 75.4882 84.8123 75.4882C84.0112 75.4882 83.3619 76.1373 83.3619 76.9386V96.0988H79.0916C78.8999 79.4128 79.3323 55.9873 82.3259 36.3536C82.6714 34.0872 83.0214 32.0716 83.3621 30.2914V71.1374C83.3621 71.9385 84.0112 72.5878 84.8125 72.5878C85.6136 72.5878 86.2629 71.9387 86.2629 71.1374V18.6921C86.2629 18.6896 86.2629 18.6869 86.2629 18.6844V1.45039C86.2627 0.649109 85.6136 0 84.8123 0ZM64.8748 28.9168C65.4628 28.9168 66.014 28.6372 66.3886 28.1366C66.8863 27.4716 67.9223 26.0875 66.9849 13.284C66.68 9.11904 66.2598 5.06738 66.0222 2.90078H68.7485C69.4489 8.10603 71.7884 28.6238 66.82 39.2445C66.0199 40.9549 65.415 41.2804 65.2445 41.2603C65.154 41.2496 62.992 40.8761 59.6374 30.0698C57.9952 24.7794 56.8471 19.4767 56.6518 18.556V14.594C56.9969 15.4914 57.3595 16.4168 57.7313 17.3422C61.8796 27.67 63.3397 28.6998 64.5834 28.8939C64.681 28.9092 64.7783 28.9168 64.8748 28.9168ZM56.6516 2.90078H63.104C63.326 4.90341 63.7566 8.99142 64.0727 13.2353C64.566 19.8627 64.5118 23.1904 64.3575 24.8496C62.6142 21.8876 59.5104 14.4312 56.6518 6.18693V2.90078H56.6516ZM61.6988 96.099H56.6518V49.0482C59.2362 59.8009 62.538 77.6395 61.6988 96.099ZM64.6023 96.0988C65.282 80.7698 63.1529 66.0248 61.2083 56.2222C59.2169 46.1834 57.0781 39.3723 56.6516 38.0555V30.2264H56.6518C56.7208 30.4544 56.7904 30.6825 56.8612 30.9109C58.7025 36.8466 61.281 43.715 64.9057 44.1411C65.0347 44.1564 65.1619 44.1639 65.2882 44.1639C66.9029 44.1638 68.3007 42.9245 69.4471 40.4735C72.0107 34.9939 73.1216 26.7057 72.749 15.8395C72.5544 10.1657 71.9999 5.33364 71.6776 2.90078H78.5643C77.686 7.40858 75.271 20.2098 73.0301 35.7395C70.5216 53.1231 67.7392 77.4885 68.4894 96.099H64.6023V96.0988ZM83.3617 18.439C82.9147 19.6473 81.1653 24.8086 79.4935 35.6843C76.4419 55.5366 75.9976 79.2214 76.1906 96.099H71.392C70.0342 63.2153 79.8752 11.3005 81.5205 2.90078H83.3619V18.439H83.3617Z" fill="black"/>
</svg>
