<svg width="97" height="97" viewBox="0 0 97 97" fill="none" xmlns="http://www.w3.org/2000/svg">
<path d="M10.433 60.1756C10.0808 59.8233 9.59201 59.6224 9.09375 59.6224C8.59549 59.6224 8.1067 59.8233 7.75432 60.1756C7.40193 60.5299 7.19922 61.0168 7.19922 61.517C7.19922 62.0152 7.40174 62.5021 7.75432 62.8564C8.10689 63.2088 8.59568 63.4115 9.09375 63.4115C9.59201 63.4115 10.0808 63.2088 10.433 62.8564C10.7854 62.5021 10.9883 62.0152 10.9883 61.517C10.9883 61.0168 10.7856 60.5299 10.433 60.1756Z" fill="black"/>
<path d="M84.1168 0H12.8828C9.74888 0 7.19922 2.54966 7.19922 5.68359V42.5349C7.19922 42.5381 7.19922 42.5413 7.19922 42.5445V54.8781C7.19922 55.9245 8.04759 56.7727 9.09375 56.7727C10.1399 56.7727 10.9883 55.9245 10.9883 54.8781V46.1273L11.0091 46.1415C18.6465 51.3369 24.3813 58.6611 27.5927 67.3225C31.7717 78.5924 39.924 87.7536 50.4298 93.2104H28.6735L27.0675 91.5043C23.1769 87.3716 21.0342 81.9699 21.0342 76.2941C21.0342 75.2477 20.1859 74.3996 19.1397 74.3996C18.0935 74.3996 17.2452 75.2477 17.2452 76.2941C17.2452 82.5385 19.4608 88.4994 23.5077 93.2102H12.8828C11.8382 93.2102 10.9883 92.3603 10.9883 91.3157V68.826C10.9883 67.7797 10.1399 66.9315 9.09375 66.9315C8.04759 66.9315 7.19922 67.7797 7.19922 68.826V91.3158C7.19922 94.4498 9.74888 96.9994 12.8828 96.9994H60.0481C60.0525 96.9994 60.0568 97 60.0612 97C60.0659 97 60.0707 96.9994 60.0756 96.9994H84.1168C87.2507 96.9994 89.8004 94.4498 89.8004 91.3158V5.68359C89.8004 2.54966 87.2507 0 84.1168 0ZM86.0115 23.3221C84.1189 22.2484 82.0006 21.677 79.7969 21.677C76.1965 21.677 72.8209 23.1957 70.2917 25.9532C65.1728 31.5345 65.1728 40.6161 70.2917 46.1974C72.8209 48.9549 76.1965 50.4737 79.7969 50.4737C82.0004 50.4737 84.1189 49.9021 86.0115 48.8287V67.0924C84.5287 69.0746 82.9109 70.8509 81.1939 72.372C80.4107 73.0658 80.3382 74.2632 81.0321 75.0464C81.4067 75.469 81.9277 75.6846 82.4509 75.6846C82.8975 75.6846 83.3459 75.5276 83.7065 75.2082C84.4957 74.5091 85.2647 73.7622 86.0115 72.9736V91.3158C86.0113 92.3605 85.1615 93.2104 84.1168 93.2104H60.3874L57.8146 92.2978C45.4331 87.9061 35.7129 78.3226 31.1455 66.0051C27.6588 56.6012 21.4325 48.6493 13.1403 43.0083L10.9885 41.5446V5.68359C10.9885 4.63895 11.8384 3.78906 12.883 3.78906H15.7735C18.0558 8.65573 19.2613 14.039 19.2613 19.4133V24.447C19.2613 25.4934 20.1097 26.3416 21.1559 26.3416C22.202 26.3416 23.0504 25.4934 23.0504 24.447V19.4133C23.0504 14.072 21.9699 8.72261 19.9151 3.78906H40.0127C33.7992 12.5151 30.3801 23.9887 30.3801 36.1615C30.3801 48.5081 33.8956 60.1377 40.2787 68.9085C46.7938 77.8605 55.5135 82.7906 64.8316 82.7906C65.8778 82.7906 66.7261 81.9425 66.7261 80.8961C66.7261 79.8498 65.8778 79.0016 64.8316 79.0016C56.7571 79.0016 49.1258 74.6252 43.3423 66.6788C31.0955 49.8516 31.0955 22.4712 43.3425 5.64381C43.8069 5.00573 44.2888 4.38489 44.7803 3.78887H84.117C85.1616 3.78887 86.0115 4.63876 86.0115 5.6834V23.3221ZM86.0113 28.0118V44.1395C84.2782 45.7846 82.0971 46.685 79.7967 46.685C77.2709 46.685 74.8868 45.6025 73.084 43.6367C69.2603 39.4676 69.2603 32.6839 73.084 28.5146C74.8868 26.5488 77.2709 25.4663 79.7967 25.4663C82.0971 25.4665 84.2782 26.3668 86.0113 28.0118Z" fill="black"/>
<path d="M66.4245 9.69656C66.0665 8.71349 64.9788 8.20652 63.9961 8.56458C60.155 9.9635 56.6188 12.4586 53.77 15.7799C53.0887 16.5741 53.1804 17.7701 53.9748 18.4514C54.3321 18.7579 54.7707 18.9078 55.2072 18.9078C55.7409 18.9078 56.2716 18.6835 56.6463 18.2466C59.0721 15.4182 62.0618 13.3013 65.2926 12.125C66.2756 11.7669 66.7824 10.6796 66.4245 9.69656Z" fill="black"/>
<path d="M74.6392 62.8901C74.5796 61.8454 73.6912 61.0488 72.6392 61.1071L72.6053 61.109C71.5606 61.1689 70.7625 62.0643 70.8225 63.1089C70.8803 64.1166 71.7156 64.8951 72.7123 64.8951C72.7487 64.8951 72.7856 64.8939 72.8226 64.8918L72.8565 64.8899C73.9011 64.8301 74.6993 63.9347 74.6392 62.8901Z" fill="black"/>
<path d="M66.4091 60.3937C62.7354 59.312 59.3596 57.0681 56.6466 53.9048C50.492 46.7287 48.6363 35.9927 51.9192 26.5536C52.2626 25.5654 51.7403 24.4856 50.7521 24.1419C49.7624 23.7982 48.6841 24.3207 48.3404 25.3091C44.623 35.998 46.7545 48.1907 53.7705 56.3717C56.9613 60.0919 60.9614 62.7395 65.3389 64.0288C65.5175 64.0814 65.6977 64.1065 65.8748 64.1065C66.6935 64.1065 67.4486 63.5716 67.6915 62.7466C67.9869 61.7426 67.4128 60.6893 66.4091 60.3937Z" fill="black"/>
</svg>
