<svg width="16" height="16" viewBox="0 0 16 16" fill="none" xmlns="http://www.w3.org/2000/svg">
<g clip-path="url(#clip0)">
<path d="M12.2905 7.56934L7.99996 6.13965V2.00002C7.99996 0.897461 7.10299 0 5.99999 0C4.89693 0 3.99997 0.897461 3.99997 2.00002V5.84865L2.70702 7.7881C2.24463 8.48146 2 9.28908 2 10.1231V11.5C2 13.9815 4.01856 16 6.50002 16H10.5C12.4297 16 14 14.4297 14 12.5V9.94147C14 8.86423 13.313 7.91114 12.2905 7.56934ZM13 12.5C13 13.8789 11.8784 15 10.5 15H6.50002C4.57034 15 3.00001 13.4297 3.00001 11.5V10.123C3.00001 9.4873 3.18651 8.87206 3.53907 8.34277L4.00002 7.65135V9.99999H5.00003V2.00002C5.00003 1.44824 5.44876 1.00001 6.00004 1.00001C6.55131 1.00001 7.00005 1.44824 7.00005 2.00002V6.50004C7.00005 6.7149 7.13774 6.90629 7.34184 6.97464L11.9742 8.5186C12.5879 8.7227 13.0001 9.29497 13.0001 9.94147C13 9.94142 13 12.5 13 12.5Z" fill="#B8B8B8"/>
</g>
<defs>
<clipPath id="clip0">
<rect width="16" height="16" fill="white"/>
</clipPath>
</defs>
</svg>
