<svg width="20" height="20" viewBox="0 0 20 20" fill="none" xmlns="http://www.w3.org/2000/svg">
<g clip-path="url(#clip0)">
<path d="M9.98444 0C6.74057 0 4.10156 2.63901 4.10156 5.88287V14.1171C4.10156 17.361 6.74057 20 9.98444 20C13.2283 20 15.8673 17.361 15.8673 14.1171V5.88287C15.8673 2.63901 13.2283 0 9.98444 0ZM14.6674 14.1171C14.6674 16.6992 12.5665 18.8 9.98444 18.8C7.40234 18.8 5.30151 16.6992 5.30151 14.1171V5.88287C5.30151 3.30078 7.40234 1.19995 9.98444 1.19995C12.5665 1.19995 14.6674 3.30078 14.6674 5.88287V14.1171Z" fill="#7E7E7E"/>
<path d="M9.98474 3.97876C9.65332 3.97876 9.38477 4.24731 9.38477 4.57874V7.34027C9.38477 7.67154 9.65332 7.94025 9.98474 7.94025C10.316 7.94025 10.5847 7.67154 10.5847 7.34027V4.57874C10.5847 4.24731 10.3162 3.97876 9.98474 3.97876Z" fill="#7E7E7E"/>
</g>
<defs>
<clipPath id="clip0">
<rect width="20" height="20" fill="white"/>
</clipPath>
</defs>
</svg>
