<svg width="12" height="10" viewBox="0 0 12 10" fill="none" xmlns="http://www.w3.org/2000/svg">
<path d="M11.8082 4.30493L7.47457 0.182276C7.35087 0.0645948 7.18599 0 7.01019 0C6.83419 0 6.66941 0.0646876 6.5457 0.182276L6.15224 0.556666C6.02863 0.674162 5.96054 0.831101 5.96054 0.998435C5.96054 1.16568 6.02863 1.32791 6.15224 1.4454L8.68042 3.85573H0.648287C0.286144 3.85573 0 4.12543 0 4.47003V4.99932C0 5.34392 0.286144 5.64081 0.648287 5.64081H8.7091L6.15234 8.0646C6.02873 8.18228 5.96063 8.33495 5.96063 8.50229C5.96063 8.66944 6.02873 8.82433 6.15234 8.94192L6.5458 9.31511C6.66951 9.43279 6.83429 9.49692 7.01028 9.49692C7.18609 9.49692 7.35096 9.43195 7.47467 9.31427L11.8083 5.19171C11.9323 5.07366 12.0005 4.91607 12 4.74855C12.0004 4.58048 11.9323 4.42279 11.8082 4.30493Z" fill="#2F2F2F"/>
</svg>
