<svg width="40" height="40" viewBox="0 0 40 40" fill="none" xmlns="http://www.w3.org/2000/svg">
<path d="M7.48066 26.9292H7.47434C7.15074 26.9292 6.8916 27.1915 6.8916 27.5151C6.8916 27.8387 7.15707 28.1011 7.48066 28.1011C7.80426 28.1011 8.0666 27.8387 8.0666 27.5151C8.0666 27.1915 7.80426 26.9292 7.48066 26.9292Z" fill="url(#paint0_linear)"/>
<path d="M12.4914 26.9292H12.4852C12.1616 26.9292 11.9023 27.1915 11.9023 27.5151C11.9023 27.8387 12.1678 28.1011 12.4914 28.1011C12.815 28.1011 13.0773 27.8387 13.0773 27.5151C13.0773 27.1915 12.815 26.9292 12.4914 26.9292Z" fill="url(#paint1_linear)"/>
<path d="M33.1574 26.9292H33.1512C32.8276 26.9292 32.5684 27.1915 32.5684 27.5151C32.5684 27.8387 32.8338 28.1011 33.1574 28.1011C33.481 28.1011 33.7434 27.8387 33.7434 27.5151C33.7434 27.1915 33.481 26.9292 33.1574 26.9292Z" fill="url(#paint2_linear)"/>
<path d="M39.4616 19.8452L38.6738 19.0574L37.0866 14.2959C37.3234 14.2207 37.4951 13.9992 37.4951 13.7376C37.4951 13.414 37.2327 13.1516 36.9091 13.1516H31.2325V10.6065C31.2325 9.93804 30.6887 9.39429 30.0203 9.39429H1.21219C0.543751 9.39429 0 9.93812 0 10.6065V24.3842C0 25.0526 0.543751 25.5963 1.21219 25.5963H1.87875V26.8889C1.87875 27.5573 2.4225 28.101 3.09094 28.101H4.44024C4.71493 29.526 5.97079 30.606 7.47478 30.606C8.50463 30.606 9.41783 30.0993 9.97978 29.3226C10.5418 30.0993 11.455 30.606 12.4849 30.606C13.9889 30.606 15.2448 29.526 15.5194 28.101H30.1169C30.3916 29.526 31.6475 30.606 33.1515 30.606C34.8559 30.606 36.2424 29.2194 36.2424 27.5151C36.2424 27.5017 36.2416 27.4885 36.2414 27.4751H38.7878C39.4562 27.4751 40 26.9314 40 26.2629V21.1451C40.0001 20.6541 39.8088 20.1924 39.4616 19.8452ZM4.44024 26.9292H3.09094C3.06868 26.9292 3.05063 26.9112 3.05063 26.8889V25.5964H5.05415C4.75103 25.9781 4.53595 26.4325 4.44024 26.9292ZM7.47478 29.4343C6.41658 29.4343 5.55571 28.5734 5.55571 27.5153C5.55571 26.4611 6.41017 25.603 7.46283 25.5964H7.48689C8.53955 25.6029 9.394 26.461 9.394 27.5153C9.39392 28.5734 8.53299 29.4343 7.47478 29.4343ZM12.4849 29.4343C11.4267 29.4343 10.5658 28.5734 10.5658 27.5153C10.5658 26.4611 11.4203 25.603 12.4729 25.5964H12.497C13.5496 25.6029 14.4041 26.461 14.4041 27.5153C14.404 28.5734 13.5432 29.4343 12.4849 29.4343ZM30.117 26.9292H15.5195C15.4238 26.4325 15.2087 25.9781 14.9055 25.5963H26.2626C26.5862 25.5963 26.8486 25.334 26.8486 25.0104C26.8486 24.6868 26.5862 24.4245 26.2626 24.4245H1.21219C1.18992 24.4245 1.17188 24.4064 1.17188 24.3842V10.6065C1.17188 10.5842 1.18992 10.5662 1.21219 10.5662H30.0202C30.0425 10.5662 30.0605 10.5842 30.0605 10.6065V24.4246H28.7679C28.4444 24.4246 28.182 24.6869 28.182 25.0105C28.182 25.3341 28.4444 25.5964 28.7679 25.5964H30.7309C30.4277 25.9781 30.2127 26.4325 30.117 26.9292ZM37.5574 19.4142H33.7778C33.7555 19.4142 33.7375 19.3961 33.7375 19.3738V16.8284H36.6955L37.5574 19.4142ZM33.1516 29.4343C32.0933 29.4343 31.2325 28.5734 31.2325 27.5153C31.2325 26.4611 32.0869 25.603 33.1396 25.5964H33.1516C33.153 25.5964 33.1543 25.5963 33.1557 25.5962C34.212 25.5984 35.0708 26.4584 35.0708 27.5152C35.0706 28.5734 34.2098 29.4343 33.1516 29.4343ZM38.8282 26.2631C38.8282 26.2853 38.8102 26.3034 38.7879 26.3034H35.9948C35.5225 25.1997 34.426 24.4243 33.1516 24.4243C33.1475 24.4243 33.1436 24.4246 33.1395 24.4246H31.2325V14.3641V14.3637C31.2325 14.3415 31.2505 14.3234 31.2728 14.3234H35.8605L36.3049 15.6566H33.1516C32.828 15.6566 32.5656 15.9189 32.5656 16.2425V19.3738C32.5656 20.0423 33.1094 20.586 33.7778 20.586H38.5452L38.633 20.6738C38.7588 20.7998 38.8282 20.9671 38.8282 21.1452V22.5458H38.1616C37.838 22.5458 37.5757 22.8081 37.5757 23.1317C37.5757 23.4553 37.838 23.7177 38.1616 23.7177H38.8282V26.2631Z" fill="url(#paint3_linear)"/>
<path d="M28.1413 21.9192H3.09082C2.76723 21.9192 2.50488 22.1815 2.50488 22.5051C2.50488 22.8287 2.76723 23.0911 3.09082 23.0911H28.1413C28.4649 23.0911 28.7272 22.8287 28.7272 22.5051C28.7272 22.1815 28.4649 21.9192 28.1413 21.9192Z" fill="url(#paint4_linear)"/>
<defs>
<linearGradient id="paint0_linear" x1="7.28223" y1="27.9962" x2="7.44173" y2="27.0203" gradientUnits="userSpaceOnUse">
<stop stop-color="#342525"/>
<stop offset="1" stop-color="#593B3B"/>
</linearGradient>
<linearGradient id="paint1_linear" x1="12.293" y1="27.9962" x2="12.4525" y2="27.0203" gradientUnits="userSpaceOnUse">
<stop stop-color="#342525"/>
<stop offset="1" stop-color="#593B3B"/>
</linearGradient>
<linearGradient id="paint2_linear" x1="32.959" y1="27.9962" x2="33.1185" y2="27.0203" gradientUnits="userSpaceOnUse">
<stop stop-color="#342525"/>
<stop offset="1" stop-color="#593B3B"/>
</linearGradient>
<linearGradient id="paint3_linear" x1="13.2979" y1="28.7073" x2="14.8622" y2="10.7079" gradientUnits="userSpaceOnUse">
<stop stop-color="#342525"/>
<stop offset="1" stop-color="#593B3B"/>
</linearGradient>
<linearGradient id="paint4_linear" x1="11.2224" y1="22.9862" x2="11.2297" y2="21.9843" gradientUnits="userSpaceOnUse">
<stop stop-color="#342525"/>
<stop offset="1" stop-color="#593B3B"/>
</linearGradient>
</defs>
</svg>
