<svg width="95" height="95" viewBox="0 0 95 95" fill="none" xmlns="http://www.w3.org/2000/svg">
<g clip-path="url(#clip0)">
<path d="M27.2878 0H7.07506C5.95937 0 5.05371 0.905469 5.05371 2.02135V72.7659C5.05371 73.8816 5.95918 74.7873 7.07506 74.7873H27.2878C28.4035 74.7873 29.3091 73.8818 29.3091 72.7659V2.02135C29.309 0.905469 28.4035 0 27.2878 0ZM25.2664 70.7448H9.09622V4.04251H25.2664V70.7448Z" fill="black"/>
<path d="M47.4997 10.1063H27.287C26.1713 10.1063 25.2656 11.0118 25.2656 12.1277V92.9788C25.2656 94.0945 26.1711 95.0002 27.287 95.0002H47.4997C48.6154 95.0002 49.5211 94.0947 49.5211 92.9788V12.1277C49.5211 11.0118 48.6154 10.1063 47.4997 10.1063ZM45.4784 90.9575H29.3081V14.1488H45.4784V90.9575Z" fill="black"/>
<path d="M67.7126 0H47.4999C46.3842 0 45.4785 0.905469 45.4785 2.02135V72.7659C45.4785 73.8816 46.384 74.7873 47.4999 74.7873H67.7126C68.8283 74.7873 69.7339 73.8818 69.7339 72.7659V2.02135C69.7339 0.905469 68.8283 0 67.7126 0ZM65.6914 70.7448H49.5212V4.04251H65.6914V70.7448Z" fill="black"/>
<path d="M87.9255 10.1063H67.7128C66.5971 10.1063 65.6914 11.0118 65.6914 12.1277V92.9788C65.6914 94.0945 66.5969 95.0002 67.7128 95.0002H87.9255C89.0412 95.0002 89.9468 94.0947 89.9468 92.9788V12.1277C89.9468 11.0118 89.0414 10.1063 87.9255 10.1063ZM85.9043 90.9575H69.7341V14.1488H85.9043V90.9575Z" fill="black"/>
<path d="M12.1279 6.06384C11.5699 6.06384 11.1172 6.51658 11.1172 7.07452V27.2872C11.1172 27.8452 11.5699 28.2979 12.1279 28.2979C12.6858 28.2979 13.1385 27.8452 13.1385 27.2872V7.07452C13.1385 6.51658 12.6856 6.06384 12.1279 6.06384Z" fill="black"/>
<path d="M17.1806 36.3829C16.6227 36.3829 16.1699 36.8357 16.1699 37.3936V47.5C16.1699 48.0579 16.6227 48.5106 17.1806 48.5106C17.7385 48.5106 18.1913 48.0579 18.1913 47.5V37.3936C18.1913 36.8357 17.7383 36.3829 17.1806 36.3829Z" fill="black"/>
<path d="M17.1806 56.5957C16.6227 56.5957 16.1699 57.0475 16.1699 57.6064V62.6596C16.1699 63.2184 16.6227 63.6702 17.1806 63.6702C17.7385 63.6702 18.1913 63.2184 18.1913 62.6596V57.6064C18.1913 57.0475 17.7383 56.5957 17.1806 56.5957Z" fill="black"/>
<path d="M17.1806 11.1171C16.6227 11.1171 16.1699 11.5698 16.1699 12.1277V22.2341C16.1699 22.792 16.6227 23.2448 17.1806 23.2448C17.7385 23.2448 18.1913 22.792 18.1913 22.2341V12.1277C18.1913 11.5698 17.7383 11.1171 17.1806 11.1171Z" fill="black"/>
<path d="M42.4472 16.1702C41.8893 16.1702 41.4365 16.6229 41.4365 17.1808V42.4468C41.4365 43.0047 41.8893 43.4574 42.4472 43.4574C43.0051 43.4574 43.4579 43.0047 43.4579 42.4468V17.1808C43.4579 16.6229 43.0051 16.1702 42.4472 16.1702Z" fill="black"/>
<path d="M37.3935 26.2766C36.8355 26.2766 36.3828 26.7293 36.3828 27.2873V37.3936C36.3828 37.9516 36.8355 38.4043 37.3935 38.4043C37.9514 38.4043 38.4042 37.9516 38.4042 37.3936V27.2873C38.4042 26.7293 37.9514 26.2766 37.3935 26.2766Z" fill="black"/>
<path d="M32.3408 51.5425C31.7828 51.5425 31.3301 51.9943 31.3301 52.5532V67.7127C31.3301 68.2716 31.7828 68.7234 32.3408 68.7234C32.8987 68.7234 33.3514 68.2716 33.3514 67.7127V52.5532C33.3514 51.9943 32.8987 51.5425 32.3408 51.5425Z" fill="black"/>
<path d="M37.3935 56.5957C36.8355 56.5957 36.3828 57.0475 36.3828 57.6064V82.8723C36.3828 83.4312 36.8355 83.883 37.3935 83.883C37.9514 83.883 38.4042 83.4312 38.4042 82.8723V57.6064C38.4042 57.0475 37.9514 56.5957 37.3935 56.5957Z" fill="black"/>
<path d="M57.6064 6.06384C57.0475 6.06384 56.5957 6.51658 56.5957 7.07452V17.1809C56.5957 17.7388 57.0475 18.1916 57.6064 18.1916C58.1652 18.1916 58.6171 17.7388 58.6171 17.1809V7.07452C58.6171 6.51658 58.1652 6.06384 57.6064 6.06384Z" fill="black"/>
<path d="M62.6601 21.2234C62.1012 21.2234 61.6494 21.6761 61.6494 22.2341V52.5532C61.6494 53.112 62.1012 53.5638 62.6601 53.5638C63.219 53.5638 63.6708 53.112 63.6708 52.5532V22.2341C63.6708 21.6761 63.219 21.2234 62.6601 21.2234Z" fill="black"/>
<path d="M57.6064 26.2766C57.0475 26.2766 56.5957 26.7293 56.5957 27.2873V32.3405C56.5957 32.8984 57.0475 33.3511 57.6064 33.3511C58.1652 33.3511 58.6171 32.8984 58.6171 32.3405V27.2873C58.6171 26.7293 58.1652 26.2766 57.6064 26.2766Z" fill="black"/>
<path d="M52.5527 36.3829C51.9938 36.3829 51.542 36.8357 51.542 37.3936V62.6595C51.542 63.2184 51.9938 63.6702 52.5527 63.6702C53.1115 63.6702 53.5633 63.2184 53.5633 62.6595V37.3936C53.5633 36.8357 53.1115 36.3829 52.5527 36.3829Z" fill="black"/>
<path d="M72.7656 66.702C72.2067 66.702 71.7549 67.1538 71.7549 67.7127V87.9254C71.7549 88.4843 72.2067 88.9361 72.7656 88.9361C73.3244 88.9361 73.7762 88.4843 73.7762 87.9254V67.7127C73.7762 67.1538 73.3244 66.702 72.7656 66.702Z" fill="black"/>
<path d="M77.8193 56.5957C77.2604 56.5957 76.8086 57.0475 76.8086 57.6064V77.8191C76.8086 78.378 77.2604 78.8298 77.8193 78.8298C78.3781 78.8298 78.8299 78.378 78.8299 77.8191V57.6064C78.8299 57.0475 78.3781 56.5957 77.8193 56.5957Z" fill="black"/>
<path d="M72.7656 26.2766C72.2067 26.2766 71.7549 26.7293 71.7549 27.2873V32.3405C71.7549 32.8984 72.2067 33.3511 72.7656 33.3511C73.3244 33.3511 73.7762 32.8984 73.7762 32.3405V27.2873C73.7762 26.7293 73.3244 26.2766 72.7656 26.2766Z" fill="black"/>
<path d="M82.872 36.3829C82.3131 36.3829 81.8613 36.8357 81.8613 37.3936V52.5531C81.8613 53.112 82.3131 53.5638 82.872 53.5638C83.4309 53.5638 83.8827 53.112 83.8827 52.5531V37.3936C83.8827 36.8357 83.4309 36.3829 82.872 36.3829Z" fill="black"/>
</g>
<defs>
<clipPath id="clip0">
<rect width="95" height="95" fill="white"/>
</clipPath>
</defs>
</svg>
