<svg width="89" height="89" viewBox="0 0 89 89" fill="none" xmlns="http://www.w3.org/2000/svg">
<path d="M0 12.9781V20.3956V35.2281V42.6456H89V35.2281V20.3956V12.9781H0ZM3.70744 24.1032H14.8325C15.8566 24.1032 16.6875 23.2748 16.6875 22.2509C16.6875 21.2243 15.8564 20.3958 14.8325 20.3958H3.70744V16.6882H85.2926V24.1031H70.4574C64.9736 24.1031 61.7578 26.4633 60.0251 28.446C59.0445 29.5651 58.4225 30.6787 58.045 31.5207H3.70744V24.1032ZM3.70744 38.9382V35.2281H85.2926V38.9382H3.70744ZM85.2927 31.5207H62.3066C63.5423 29.8205 65.957 27.8133 70.4576 27.8133H85.2927V31.5207Z" fill="black"/>
<path d="M0 53.7718V68.6016V76.022H89V68.6016V53.7718V46.3531H0V53.7718ZM3.70744 50.062H37.8131C37.6638 50.2681 37.4954 50.4799 37.3106 50.6972C35.5261 52.7343 32.9541 53.7718 29.6675 53.7718H3.70744V50.062ZM3.70744 57.4765H29.6675C35.1513 57.4765 38.3671 55.119 40.0999 53.1361C41.0804 52.017 41.7024 50.9035 42.0799 50.0618H85.2926V51.914H77.8749C76.8509 51.914 76.0198 52.745 76.0198 53.7718C76.0198 54.7931 76.8509 55.6242 77.8749 55.6242H85.2926V59.3344H66.7554C65.7288 59.3344 64.9003 60.1601 64.9003 61.1867C64.9003 62.2134 65.7288 63.039 66.7554 63.039H85.2926V64.8969H3.70744V57.4765ZM3.70744 68.6016H85.2926V72.3118H3.70744V68.6016Z" fill="black"/>
</svg>
